<svg id="圖層_1" data-name="圖層 1" xmlns="http://www.w3.org/2000/svg" viewBox="0 0 2210.59 138.92"><defs><style>.cls-1{fill:#fff;stroke:#fff;stroke-miterlimit:10;stroke-width:0.88px;}</style></defs><path class="cls-1" d="M28.19.44a5,5,0,0,1,4.55,2.37L83.37,74l51-71.19A5,5,0,0,1,138.93.44h24.84a2.07,2.07,0,0,1,2.08,1.28,2.6,2.6,0,0,1-.37,2.66L97.4,96.28v37.87q0,4.33-4.17,4.33H72.75q-4.36,0-4.36-4.33V96.28L1.07,4.38A2.79,2.79,0,0,1,.6,1.72,2.05,2.05,0,0,1,2.78.44Z"/><path class="cls-1" d="M288.05,28.05c2.32,0,3.49,1.16,3.49,3.47v15c0,2.31-1.17,3.47-3.49,3.47h-66.3A39.21,39.21,0,0,0,212,51a13.18,13.18,0,0,0-6.22,3.47,13.5,13.5,0,0,0-3.26,6.63,49.34,49.34,0,0,0-.91,10.33V73h85.71c2.22,0,3.34,1.16,3.34,3.47V89c0,2.31-1.12,3.47-3.34,3.47H201.58V95.1a49.27,49.27,0,0,0,.91,10.33,13.46,13.46,0,0,0,3.26,6.63,13,13,0,0,0,6.22,3.47,38.69,38.69,0,0,0,9.78,1h66.3c2.32,0,3.49,1.15,3.49,3.47v15c0,2.32-1.17,3.47-3.49,3.47H221.3a74.94,74.94,0,0,1-19.57-2.2,29.65,29.65,0,0,1-13.12-7.18,29.23,29.23,0,0,1-7.43-12.94,68.85,68.85,0,0,1-2.36-19.33V69.7a68.06,68.06,0,0,1,2.36-19.25,29.22,29.22,0,0,1,7.43-12.86,30.15,30.15,0,0,1,13.12-7.25,72.14,72.14,0,0,1,19.57-2.29Z"/><path class="cls-1" d="M425.94,28.05c2.32,0,3.49,1.16,3.49,3.47V47c0,2.42-1.17,3.63-3.49,3.63H378.31V135c0,2.32-1.12,3.47-3.34,3.47H358.43c-2.22,0-3.33-1.15-3.33-3.47V50.61H307.46Q304,50.61,304,47V31.52q0-3.46,3.49-3.47Z"/><path class="cls-1" d="M596.56.44A22.59,22.59,0,0,1,608.69,3.5q4.93,3.06,9.67,11.93L681.13,134a4.21,4.21,0,0,1,.47,3.25c-.31.86-1.23,1.28-2.75,1.28H654.77a4.31,4.31,0,0,1-4.36-2.56L637,110.48H547.82l-13.08,25.44a4.55,4.55,0,0,1-4.36,2.56H505.73c-1.65,0-2.63-.42-2.94-1.28a4.21,4.21,0,0,1,.47-3.25l62.2-118.52q4.74-8.88,9.29-11.93A18.58,18.58,0,0,1,585.37.44ZM559.77,87.61H625L594.85,29.82a2.33,2.33,0,0,0-2.09-1.38h-1.13a2.32,2.32,0,0,0-2.09,1.38Z"/><path class="cls-1" d="M723.64,28.05a48.62,48.62,0,0,1,6.07.31A11.74,11.74,0,0,1,734,29.71a14.67,14.67,0,0,1,3.49,2.83,52.1,52.1,0,0,1,3.79,4.82l56.43,77a2.08,2.08,0,0,0,2,1.1H801c.81,0,1.21-.52,1.21-1.58V31.52q0-3.46,3.34-3.47h15.93q3.33,0,3.33,3.47v90.56q0,9.62-3.33,13c-2.23,2.27-5.67,3.39-10.32,3.39h-13a45.34,45.34,0,0,1-5.84-.31,12.72,12.72,0,0,1-4.17-1.26,13.89,13.89,0,0,1-3.56-2.76,45.65,45.65,0,0,1-4-5l-56.59-77a2.55,2.55,0,0,0-2-1.11h-1.36c-.81,0-1.22.53-1.22,1.58V135c0,2.32-1.11,3.47-3.33,3.47H700.13c-2.33,0-3.49-1.15-3.49-3.47V44.46q0-9.63,3.34-13t10.31-3.39Z"/><path class="cls-1" d="M934.65,28.05a73,73,0,0,1,19.65,2.29,30.07,30.07,0,0,1,13.19,7.25,28.65,28.65,0,0,1,7.36,12.86,70.19,70.19,0,0,1,2.28,19.25V96.83a71,71,0,0,1-2.28,19.33,28.66,28.66,0,0,1-7.36,12.94,29.59,29.59,0,0,1-13.19,7.18,75.85,75.85,0,0,1-19.65,2.2H887.78a74.94,74.94,0,0,1-19.57-2.2,27.6,27.6,0,0,1-20.56-20.12,68.88,68.88,0,0,1-2.35-19.33V69.7a68.09,68.09,0,0,1,2.35-19.25,29.33,29.33,0,0,1,7.44-12.86,30.09,30.09,0,0,1,13.12-7.25,72.14,72.14,0,0,1,19.57-2.29ZM868.51,95.1a45.62,45.62,0,0,0,1,10.33,14.35,14.35,0,0,0,3.26,6.63,12.56,12.56,0,0,0,6.14,3.47,38.72,38.72,0,0,0,9.79,1h45a38.72,38.72,0,0,0,9.79-1,12.52,12.52,0,0,0,6.14-3.47,14.35,14.35,0,0,0,3.26-6.63,45.62,45.62,0,0,0,1-10.33V71.43a45.69,45.69,0,0,0-1-10.33,14.4,14.4,0,0,0-3.26-6.63A12.68,12.68,0,0,0,943.53,51a39.24,39.24,0,0,0-9.79-1h-45a39.24,39.24,0,0,0-9.79,1,12.72,12.72,0,0,0-6.14,3.47,14.4,14.4,0,0,0-3.26,6.63,45.69,45.69,0,0,0-1,10.33Z"/><path class="cls-1" d="M1109.86,28.05q3.5,0,3.49,3.47V47q0,3.63-3.49,3.63h-47.63V135c0,2.32-1.11,3.47-3.34,3.47h-16.53c-2.23,0-3.34-1.15-3.34-3.47V50.61H991.39q-3.5,0-3.49-3.63V31.52q0-3.46,3.49-3.47Z"/><path class="cls-1" d="M1148.24,28.05c2.22,0,3.34,1.16,3.34,3.47v41h71v-41q0-3.46,3.34-3.47h16.38q3.49,0,3.49,3.47V135c0,2.32-1.16,3.47-3.49,3.47h-16.38c-2.23,0-3.34-1.15-3.34-3.47v-42h-71v42c0,2.32-1.12,3.47-3.34,3.47h-16.38c-2.33,0-3.49-1.15-3.49-3.47V31.52q0-3.46,3.49-3.47Z"/><path class="cls-1" d="M1375.33,28.05q3.5,0,3.49,3.47v15q0,3.47-3.49,3.47H1309a39.29,39.29,0,0,0-9.79,1,13.15,13.15,0,0,0-6.21,3.47,13.51,13.51,0,0,0-3.27,6.63,50,50,0,0,0-.91,10.33V73h85.71q3.35,0,3.34,3.47V89q0,3.47-3.34,3.47h-85.71V95.1a50,50,0,0,0,.91,10.33,13.47,13.47,0,0,0,3.27,6.63,13,13,0,0,0,6.21,3.47,38.77,38.77,0,0,0,9.79,1h66.29c2.33,0,3.49,1.15,3.49,3.47v15c0,2.32-1.16,3.47-3.49,3.47h-66.75a74.85,74.85,0,0,1-19.56-2.2,29.64,29.64,0,0,1-13.13-7.18,29.32,29.32,0,0,1-7.43-12.94,68.88,68.88,0,0,1-2.35-19.33V69.7a68.09,68.09,0,0,1,2.35-19.25,29.31,29.31,0,0,1,7.43-12.86A30.13,30.13,0,0,1,1289,30.34a72.06,72.06,0,0,1,19.56-2.29Z"/><path class="cls-1" d="M1483.79,28.05q17.45,0,25,8.2t7.59,24.3v9q0,13.58-5.31,21.46t-17.29,10.09l25.94,33.45a2.59,2.59,0,0,1,.45,2.37c-.2,1.05-1,1.57-2.43,1.57h-19.56a5.56,5.56,0,0,1-2.74-.47,5.36,5.36,0,0,1-1.51-1.58l-24-32.81h-49V135c0,2.32-1.11,3.47-3.34,3.47h-16.38c-2.33,0-3.49-1.15-3.49-3.47V32.78q0-4.73,4.55-4.73ZM1421,84.37h58.1q7.74,0,10.92-3.47t3.19-10.57V63.7q0-7.1-3.19-10.57t-10.92-3.47H1423c-1.31,0-2,.63-2,1.9Z"/><path class="cls-1" d="M1642.05.44a38.65,38.65,0,0,1,7.21.59,13.1,13.1,0,0,1,5.31,2.27,16.55,16.55,0,0,1,4.07,4.53,47.88,47.88,0,0,1,3.7,7.6l39.44,94.66a2.69,2.69,0,0,0,2.66,1.77h2.27a2.7,2.7,0,0,0,2.66-1.77l39.44-94.66a47,47,0,0,1,3.7-7.6,16.55,16.55,0,0,1,4.07-4.53A13.08,13.08,0,0,1,1761.8,1a37,37,0,0,1,7.11-.59h20.29q9.85,0,13.27,4.63T1805.89,21v113.2q0,4.33-4.37,4.33h-19.34q-4.17,0-4.17-4.33V31.2c0-1.31-.51-2-1.52-2h-1.7a2.35,2.35,0,0,0-2.47,1.58L1734,119.16a59.63,59.63,0,0,1-4.65,9,27.93,27.93,0,0,1-5.12,6,16.31,16.31,0,0,1-6.26,3.35,30.52,30.52,0,0,1-8.24,1h-9.11a30.47,30.47,0,0,1-8.24-1,16.31,16.31,0,0,1-6.26-3.35,27.65,27.65,0,0,1-5.12-6,59.63,59.63,0,0,1-4.65-9l-38.3-88.35a2.35,2.35,0,0,0-2.47-1.58h-1.7c-1,0-1.52.66-1.52,2v103q0,4.33-4.17,4.33h-19.34q-4.36,0-4.36-4.33V21q0-11.23,3.41-15.88T1621.38.44Z"/><path class="cls-1" d="M1938.32,28.05q3.48,0,3.48,3.47v15q0,3.47-3.48,3.47H1872a39.21,39.21,0,0,0-9.78,1,13.18,13.18,0,0,0-6.22,3.47,13.42,13.42,0,0,0-3.26,6.63,49.34,49.34,0,0,0-.91,10.33V73h85.71q3.33,0,3.33,3.47V89q0,3.47-3.33,3.47h-85.71V95.1a49.27,49.27,0,0,0,.91,10.33,13.37,13.37,0,0,0,3.26,6.63,13,13,0,0,0,6.22,3.47,38.69,38.69,0,0,0,9.78,1h66.3c2.32,0,3.48,1.15,3.48,3.47v15c0,2.32-1.16,3.47-3.48,3.47h-66.75a74.94,74.94,0,0,1-19.57-2.2,27.6,27.6,0,0,1-20.56-20.12,68.88,68.88,0,0,1-2.35-19.33V69.7a68.09,68.09,0,0,1,2.35-19.25,29.33,29.33,0,0,1,7.44-12.86A30.09,30.09,0,0,1,1852,30.34a72.14,72.14,0,0,1,19.57-2.29Z"/><path class="cls-1" d="M2068.77,28.05q3.49,0,3.49,3.47v15q0,3.47-3.49,3.47h-66.29a39.21,39.21,0,0,0-9.78,1,13.14,13.14,0,0,0-6.22,3.47,13.42,13.42,0,0,0-3.26,6.63,49.34,49.34,0,0,0-.91,10.33V73H2068q3.33,0,3.33,3.47V89q0,3.47-3.33,3.47h-85.71V95.1a49.27,49.27,0,0,0,.91,10.33,13.37,13.37,0,0,0,3.26,6.63,13,13,0,0,0,6.22,3.47,38.69,38.69,0,0,0,9.78,1h66.29c2.33,0,3.49,1.15,3.49,3.47v15c0,2.32-1.16,3.47-3.49,3.47H2002a74.94,74.94,0,0,1-19.57-2.2,27.6,27.6,0,0,1-20.56-20.12,68.88,68.88,0,0,1-2.35-19.33V69.7a68.09,68.09,0,0,1,2.35-19.25,29.33,29.33,0,0,1,7.44-12.86,30.09,30.09,0,0,1,13.12-7.25A72.14,72.14,0,0,1,2002,28.05Z"/><path class="cls-1" d="M2206.67,28.05c2.32,0,3.49,1.16,3.49,3.47V47c0,2.42-1.17,3.63-3.49,3.63H2159V135c0,2.32-1.11,3.47-3.33,3.47h-16.54c-2.22,0-3.34-1.15-3.34-3.47V50.61h-47.63q-3.49,0-3.49-3.63V31.52q0-3.46,3.49-3.47Z"/></svg>