<svg width="780" height="215" xmlns="http://www.w3.org/2000/svg" data-name="圖層 1">
 <g>
  <title>Layer 1</title>
  <g stroke="null" id="svg_1">
   <path stroke="null" id="svg_2" class="cls-1" d="m773.58755,123.59762l0.02523,0l-0.06308,0.02103l-0.12195,0.02944c-0.0841,0 -0.1598,0.02944 -0.2397,0.04205a3.61226,3.61226 0 0 1 -0.47098,0.03785a5.04624,5.04624 0 0 1 -0.91253,-0.05046a8.30948,8.30948 0 0 1 -1.74095,-0.42052a14.59205,14.59205 0 0 1 -3.13708,-1.59798c-0.4878,-0.30277 -0.9672,-0.68545 -1.42556,-0.97981l-0.67704,-0.45416l-0.71909,-0.38267a14.08322,14.08322 0 0 0 -3.074,-1.12279a20.49194,20.49194 0 0 0 -6.56012,-0.44996l-0.42052,0.04205l-0.42052,0.05887q-0.44575,0.06308 -0.88309,0.10092c-0.58873,0.05887 -1.17325,0.09251 -1.76198,0.10513a23.31364,23.31364 0 0 1 -3.54498,-0.17662a15.83258,15.83258 0 0 1 -3.51555,-0.84104l-0.79058,-0.29016c-0.25231,-0.10092 -0.50883,-0.17662 -0.76535,-0.25652s-0.51724,-0.15559 -0.77796,-0.21867s-0.52145,-0.13457 -0.78637,-0.18082a20.60549,20.60549 0 0 0 -6.47601,-0.19344c-4.36079,0.54247 -8.62066,2.0185 -12.74176,3.78468a49.47419,49.47419 0 0 0 -5.95457,2.88477c-0.21867,0.13457 -0.42052,0.27754 -0.62237,0.42052s-0.37006,0.28175 -0.51724,0.42052s-0.30277,0.31119 -0.50883,0.53406a7.80906,7.80906 0 0 1 -0.72329,0.72329a15.50037,15.50037 0 0 1 -3.28006,1.96804a27.59874,27.59874 0 0 1 -3.36416,1.32884c-1.15643,0.37006 -2.30024,0.62237 -3.2338,0.95038a10.93352,10.93352 0 0 0 -2.62405,1.3709a24.98731,24.98731 0 0 0 -2.48107,2.00168c-1.6148,1.47182 -3.21278,3.09923 -4.79393,4.70562s-3.13708,3.26324 -4.69301,4.92009c-3.09923,3.30949 -6.17324,6.66945 -9.20098,10.04623l-0.0841,0.09251l-0.10934,0.09251c-0.59714,0.50042 -1.11438,0.90412 -1.68208,1.32464s-1.12699,0.8116 -1.68208,1.19428a39.90315,39.90315 0 0 1 -3.59965,2.13203a32.38005,32.38005 0 0 1 -3.89402,1.71151a24.56679,24.56679 0 0 1 -4.24726,1.09335l0.87048,-0.29857c0.05467,-0.03364 0.03364,-0.02103 0,0l-0.04626,0.03364l-0.12616,0.09251l-0.28595,0.22288c-0.19764,0.1598 -0.39949,0.33221 -0.60134,0.50883c-0.42052,0.35744 -0.81581,0.73171 -1.22371,1.11438c-0.81581,0.77796 -1.619,1.58536 -2.41799,2.40538c-1.59798,1.64003 -3.1581,3.36416 -4.69301,5.08409l-2.29183,2.61984a28.47342,28.47342 0 0 0 -1.99747,2.52312a5.36163,5.36163 0 0 0 -0.58873,1.02607a2.5862,2.5862 0 0 0 -0.10934,0.39108l-0.0799,0.42052l-0.05467,0.27754l-0.08831,0.3238a8.51133,8.51133 0 0 1 -1.03448,2.28763c-0.19344,0.32801 -0.38688,0.59714 -0.58032,0.87468l-0.29016,0.42052l-0.29436,0.38267c-0.39108,0.51724 -0.79058,0.99663 -1.18587,1.46761l-1.0513,1.24053c-0.17662,0.20605 -0.3196,0.42052 -0.46257,0.61396l-0.42052,0.60975a8.54076,8.54076 0 0 0 -0.61396,1.12699a1.68208,1.68208 0 0 0 -0.10934,0.24811c0,0.07149 -0.03364,0.13877 -0.05467,0.20605c-0.07149,0.15139 -0.03364,0.21867 -0.05887,0.29857a0.05887,0.05887 0 0 0 0,0.07569s0,0.02944 0,0.04205s0,0.02944 0.05887,0.0841s0,0.04205 0.04205,0.0841a0.84104,0.84104 0 0 1 0.11354,0.13036c0.02103,0.02103 0.02944,0.04205 0.05467,0.07149l0.09672,0.08831l0.18082,0.17662l0.49621,0.42052l0.60555,0.42052l0.66442,0.47519l0.71909,0.47098l0.74853,0.47519l0.09672,0.06308l0.03785,0.02523l0,0a0.45837,0.45837 0 0 0 -0.09672,-0.05887s-0.10934,-0.05467 -0.19344,-0.0799s-0.16821,-0.02944 -0.27754,-0.05887a1.20689,1.20689 0 0 0 -0.29436,0a0.42052,0.42052 0 0 0 -0.164,0l0.06728,0l0.26493,-0.06308a5.12614,5.12614 0 0 1 1.97224,-0.05887a5.75692,5.75692 0 0 1 1.68208,0.55929l0.33221,0.16821l0.27334,0.17241c0.18082,0.11354 0.37006,0.23129 0.53827,0.34483a21.67361,21.67361 0 0 1 3.04877,2.7502l0.64339,0.67704l0.47939,0.50042a12.67027,12.67027 0 0 0 1.11017,0.99243a26.00917,26.00917 0 0 0 5.32799,3.28426a47.37579,47.37579 0 0 0 6.12698,2.36332a80.81555,80.81555 0 0 0 13.20013,2.75861l1.68208,0.20185c0.5635,0.06728 1.1354,0.13877 1.68208,0.17241l1.62741,0.13036c0.54247,0.03364 1.08074,0.02944 1.619,0.04626c1.08494,0.05887 2.14465,-0.03785 3.21278,-0.05046l1.58536,-0.14298c0.26493,-0.02944 0.52986,-0.04626 0.79478,-0.0799l0.78217,-0.12616a36.13529,36.13529 0 0 0 6.14801,-1.50546c0.99663,-0.37426 2.00588,-0.70227 2.98148,-1.16484c0.4878,-0.21867 0.98402,-0.42052 1.46761,-0.65601l1.45079,-0.75694l0.72329,-0.37006l0.70647,-0.42052l1.42136,-0.81581c0.94197,-0.55509 1.8587,-1.18166 2.79226,-1.77039l2.72076,-1.93439l2.65348,-2.04793l2.62405,-2.15306l2.56937,-2.24978c1.68208,-1.5349 3.40621,-3.10764 5.07989,-4.67619s3.30949,-3.18333 4.90327,-4.82757s3.12867,-3.3179 4.72244,-5.07148c0.42052,-0.44575 0.8074,-0.88309 1.26156,-1.34567l0.66442,-0.68545l0.73591,-0.69806a16.11854,16.11854 0 0 1 3.58703,-2.52312l0.98822,-0.46678l0.9672,-0.37426c0.42052,-0.15139 0.44155,-0.17662 0.62657,-0.2397s0.36165,-0.16821 0.55509,-0.26913a19.17572,19.17572 0 0 0 2.52312,-1.68208a61.81645,61.81645 0 0 0 4.99998,-4.45331c1.64003,-1.58116 3.23801,-3.23801 4.79813,-4.9285s3.08662,-3.43565 4.53321,-5.19763c0.35744,-0.44155 0.72329,-0.87889 1.05971,-1.31202c0.164,-0.21446 0.33642,-0.42052 0.47939,-0.63498l0.19344,-0.27334l0.03785,-0.05887l0.02103,-0.02523l0,0a0.02944,0.02944 0 0 0 0,0.02103l0,0l0.03364,-0.06728c0.10513,-0.21026 0.21446,-0.42052 0.33221,-0.62657l0.27334,-0.42052c0.18503,-0.28595 0.35744,-0.52986 0.53406,-0.77796c0.35324,-0.50462 0.69806,-0.9714 1.04709,-1.455c1.39192,-1.89234 2.74179,-3.78468 4.04961,-5.67702a50.01246,50.01246 0 0 0 3.54498,-5.83682a12.64504,12.64504 0 0 0 1.10597,-2.97728c0.02523,-0.12616 0.05887,-0.2397 0.0799,-0.37006l0.04205,-0.42052c0.03364,-0.28595 0.06308,-0.57191 0.0799,-0.84104a16.07228,16.07228 0 0 0 0.06728,-1.68208a5.3322,5.3322 0 0 0 -0.21026,-1.49284a2.20353,2.20353 0 0 0 -0.77376,-1.09756a5.10512,5.10512 0 0 0 -1.40454,-0.74012c-0.25652,-0.10934 -0.53406,-0.18503 -0.80319,-0.28175s-0.49621,-0.12616 -0.74853,-0.21867l0.00001,0.00001zm-0.06728,-0.73591c0.3238,0.03364 0.67283,0.07569 0.99663,0.12616s0.59293,0.09251 0.8915,0.17241a6.17744,6.17744 0 0 1 1.80824,0.66442a3.6375,3.6375 0 0 1 1.45079,1.54751a6.30781,6.30781 0 0 1 0.54668,1.92598c0.08831,0.63078 0.13457,1.26156 0.1598,1.85029c0,0.30698 0,0.60555 0.02523,0.90412l0,0.44996c0,0.1598 -0.02103,0.33642 -0.03364,0.50462a13.62906,13.62906 0 0 1 -0.8873,3.73842c-1.74936,4.59208 -4.23043,8.67954 -6.64842,12.70811c-0.29436,0.50042 -0.60555,1.00504 -0.87889,1.48864c-0.14298,0.2439 -0.29016,0.49621 -0.42052,0.71488l-0.17662,0.33642a1.00504,1.00504 0 0 1 -0.06308,0.15559l-0.1598,0.36165l-0.05046,0.10934l-0.03785,0.06728l-0.07149,0.13036c-0.10092,0.18923 -0.18503,0.33221 -0.26913,0.47519c-0.17662,0.29436 -0.34062,0.55509 -0.51303,0.84104c-0.33642,0.52565 -0.67283,1.02607 -1.02186,1.52228c-1.38772,1.97224 -2.8259,3.86879 -4.31033,5.74431c-2.9941,3.74263 -6.0639,7.37592 -9.84858,10.71485a25.23121,25.23121 0 0 1 -3.20857,2.41379c-0.31539,0.18923 -0.6476,0.37426 -0.99663,0.55929l-0.99243,0.44996l-0.65601,0.29436l-0.58452,0.3238a9.55842,9.55842 0 0 0 -2.04793,1.64423c-0.67283,0.67704 -1.41295,1.55172 -2.14465,2.41379c-1.49705,1.7746 -3.05298,3.62909 -4.66357,5.40368s-3.25483,3.53237 -4.9285,5.23968c-6.67786,6.72832 -13.87716,13.45664 -22.8763,18.08236l-1.68208,0.84104c-0.57191,0.26913 -1.16484,0.50462 -1.74936,0.76114c-1.15643,0.52565 -2.38435,0.91673 -3.58703,1.34987a40.36993,40.36993 0 0 1 -7.53572,1.66105l-0.95458,0.12616c-0.3196,0.03364 -0.64339,0.05046 -0.96299,0.07149l-1.92177,0.12616c-1.26156,0 -2.55676,0.04626 -3.81832,-0.06308c-0.63078,-0.04205 -1.26156,-0.06308 -1.89234,-0.12616l-1.87131,-0.21446c-0.63498,-0.06308 -1.22371,-0.1598 -1.82085,-0.25231s-1.19428,-0.17662 -1.79142,-0.28175c-2.38856,-0.42052 -4.7687,-0.87468 -7.14884,-1.44238s-4.72665,-1.26156 -7.06474,-2.03952a54.37745,54.37745 0 0 1 -6.90914,-2.91a32.20764,32.20764 0 0 1 -6.48021,-4.2851a18.34729,18.34729 0 0 1 -1.46761,-1.40033l-0.70227,-0.74432l-0.54668,-0.60975a15.76109,15.76109 0 0 0 -2.1026,-2.03532c-0.26913,-0.20605 -0.5635,-0.3196 -0.34483,-0.26072l0.08831,0a0.42052,0.42052 0 0 0 0.10513,0l0.05887,0s0.04626,0 0,0l-0.52565,0.10934c-0.19764,0.02944 -0.42052,0.05046 -0.60134,0.06308a4.90747,4.90747 0 0 1 -0.73171,-0.03785a3.29688,3.29688 0 0 1 -0.70227,-0.164a3.11185,3.11185 0 0 1 -0.60134,-0.2439c-0.164,-0.0841 -0.3238,-0.17241 -0.47939,-0.26913l-0.11775,-0.07149l-0.05467,-0.03785l-0.08831,-0.05887l-0.70647,-0.4878l-0.73591,-0.50883l-0.74853,-0.58873l-0.84104,-0.59293c-0.27754,-0.23549 -0.55929,-0.47098 -0.84104,-0.73171l-0.42052,-0.44575l-0.21446,-0.22288c-0.07569,-0.0799 -0.14718,-0.18082 -0.21867,-0.27334c-0.14718,-0.18503 -0.28595,-0.37426 -0.42052,-0.5677s-0.26072,-0.44996 -0.38267,-0.68124a6.53489,6.53489 0 0 1 -0.53827,-1.56434a7.96465,7.96465 0 0 1 -0.0799,-0.84104a3.36416,3.36416 0 0 1 0,-0.79899a6.30781,6.30781 0 0 1 0.28175,-1.42136l0.20605,-0.63498a5.65179,5.65179 0 0 1 0.24811,-0.55509a13.93603,13.93603 0 0 1 1.11858,-1.92177l0.60134,-0.81581c0.19764,-0.26913 0.42052,-0.53827 0.61396,-0.77376c0.84104,-1.04289 1.59377,-1.80403 2.24978,-2.64087a7.98988,7.98988 0 0 0 1.33725,-2.06896l0.02944,-0.09672l0.03364,-0.15559l0.10092,-0.44996a7.79224,7.79224 0 0 1 0.42052,-1.28679c0.08831,-0.21026 0.18503,-0.38688 0.27754,-0.58032a5.77374,5.77374 0 0 1 0.29436,-0.52145l0.29857,-0.47939c0.10092,-0.15139 0.20185,-0.28175 0.30277,-0.42052a34.08736,34.08736 0 0 1 2.43061,-2.94364l2.40117,-2.61984c1.6148,-1.74095 3.25903,-3.46088 4.96634,-5.13876c0.84104,-0.84104 1.73675,-1.68208 2.64087,-2.48948c0.45837,-0.42052 0.92514,-0.8116 1.41295,-1.2153c0.2439,-0.19764 0.49201,-0.39949 0.76114,-0.60134l0.42052,-0.30698l0.23129,-0.164l0.13877,-0.08831l0.20185,-0.12616l0.36585,-0.22708l0.50883,-0.07569a20.34055,20.34055 0 0 0 3.39359,-0.77796a27.59033,27.59033 0 0 0 3.36416,-1.36669a36.39181,36.39181 0 0 0 3.2338,-1.79562c0.52565,-0.33221 1.04709,-0.66863 1.55172,-1.02607s1.02607,-0.73591 1.44659,-1.06812l-0.19344,0.18503q4.73085,-4.98316 9.55001,-9.85699c3.24642,-3.24642 6.43816,-6.4718 9.99997,-9.55001a26.91329,26.91329 0 0 1 2.9142,-2.19091a14.36918,14.36918 0 0 1 3.4735,-1.66105c1.23633,-0.38267 2.32968,-0.57611 3.36416,-0.87468a23.2085,23.2085 0 0 0 3.01513,-1.07653a12.66186,12.66186 0 0 0 2.63246,-1.42556a5.29435,5.29435 0 0 0 0.50042,-0.46678c0.18503,-0.18923 0.42052,-0.45416 0.69386,-0.68124s0.53827,-0.42052 0.8116,-0.63498s0.54668,-0.35324 0.82001,-0.50883a50.96704,50.96704 0 0 1 6.42975,-2.87215c4.30613,-1.68208 8.79728,-3.08241 13.51972,-3.51555a22.72911,22.72911 0 0 1 7.12361,0.44996c0.29436,0.06308 0.58452,0.14718 0.87468,0.23129s0.57611,0.16821 0.84104,0.27334s0.5677,0.19344 0.84104,0.31539l0.79899,0.3238a14.02014,14.02014 0 0 0 3.08662,0.84104a21.15636,21.15636 0 0 0 3.27165,0.26913c0.55088,0 1.10597,0 1.65264,-0.03785q0.42052,-0.02523 0.82001,-0.06308l0.42052,-0.04626l0.44996,-0.03364a22.05628,22.05628 0 0 1 6.99746,0.74853a15.3616,15.3616 0 0 1 3.28426,1.34146l0.76955,0.45416l0.72329,0.52145c0.4878,0.34483 0.8873,0.69386 1.35408,1.01345a14.18415,14.18415 0 0 0 2.88056,1.61059a7.37172,7.37172 0 0 0 1.55593,0.44996a4.15053,4.15053 0 0 0 0.78637,0.07569a2.88056,2.88056 0 0 0 0.38267,0c0.05887,0 0.12616,0 0.18082,-0.02523l0.0841,0l0.03785,0l0.03364,0a0.36585,0.36585 0 0 1 0.09672,-0.06308l0.00001,-0.00001z" fill="#fff"/>
   <path stroke="null" id="svg_3" class="cls-1" d="m745.36225,153.38727a13.22536,13.22536 0 0 0 -1.13961,-5.4163a19.23038,19.23038 0 0 0 -2.87215,-4.73506a29.46164,29.46164 0 0 0 -8.64589,-6.89653a49.38168,49.38168 0 0 0 -5.02521,-2.43061c-1.73675,-0.68965 -3.49032,-1.33725 -5.28594,-1.88393c-0.89571,-0.27754 -1.78301,-0.57191 -2.69553,-0.80319s-1.80403,-0.50462 -2.72497,-0.70647l-5.60974,-1.35408c-0.94617,-0.2439 -1.90495,-0.42052 -2.84272,-0.71488l-2.8301,-0.79899c-1.90495,-0.4836 -3.78468,-1.18166 -5.64758,-1.80824c-0.93776,-0.30698 -1.85029,-0.73171 -2.77122,-1.12279l-1.36669,-0.61396a11.20686,11.20686 0 0 1 -1.35408,-0.66442c-0.87889,-0.49621 -1.80824,-0.84104 -2.67871,-1.36249s-1.80403,-0.94617 -2.57358,-1.62741c-3.3978,-2.48948 -6.35827,-4.75188 -8.38517,-8.33471c-0.9672,-1.81244 -2.52312,-4.15053 -3.08662,-6.03867s-0.04205,-4.30613 -0.52145,-6.18585l0.47519,-0.2397c1.2153,1.56434 4.62572,-2.9941 5.67702,-1.41295c0.60134,1.60218 -0.64339,3.50714 2.31286,9.49534c1.26156,2.9142 3.60806,6.20688 6.64422,8.12024s6.30781,3.53237 9.64253,5.13876c1.68208,0.75273 3.36416,1.57695 5.14296,2.20773l2.63246,1.00084c0.87889,0.33642 1.79142,0.58452 2.68712,0.87889l5.492,1.68208c0.94197,0.27334 1.86711,0.60555 2.79646,0.91673s1.84608,0.66863 2.76702,1.01766c1.82926,0.71068 3.62489,1.5349 5.39107,2.40117a51.91321,51.91321 0 0 1 5.12614,2.97728c3.28426,2.20353 6.30781,4.89486 8.56179,8.18753a20.36579,20.36579 0 0 1 2.62405,5.3322a13.93183,13.93183 0 0 1 0.60555,5.88728l-0.52145,-0.09251l0.00001,-0.00001z" fill="#fff"/>
   <path stroke="null" id="svg_4" class="cls-1" d="m627.72595,95.02749a100.55057,100.55057 0 0 0 -3.68376,14.17994c-0.21867,1.19428 -0.42052,2.39697 -0.58873,3.59544s-0.34483,2.40117 -0.47939,3.59965s-0.25231,2.40538 -0.33221,3.59544c-0.03785,0.5635 -0.04626,1.17325 -0.06728,1.78721l-0.04205,1.82085a45.04611,45.04611 0 0 0 0.28595,7.01848c0.3238,2.20353 1.07653,4.10848 2.3465,5.04624a4.55844,4.55844 0 0 0 1.06812,0.63078a5.29015,5.29015 0 0 0 0.60134,0.22708l0.28595,0.0799l0.30277,0.05887a8.38517,8.38517 0 0 0 2.77122,-0.06728a22.44737,22.44737 0 0 0 6.11857,-2.23296c4.07484,-2.07737 7.93942,-4.88224 11.63158,-7.86373s7.21192,-6.26995 10.62234,-9.64673s6.65263,-6.92597 9.79812,-10.56767q2.35491,-2.73758 4.62572,-5.55928t4.42387,-5.70226q4.31033,-5.79056 8.18332,-11.86287t7.46844,-12.43478q1.78721,-3.1539 3.4735,-6.36247t3.28847,-6.43816c2.1026,-4.33556 4.13371,-8.71738 5.93775,-13.1749a132.55214,132.55214 0 0 0 4.73926,-13.56178c1.30782,-4.57105 2.30865,-9.25144 2.52312,-13.83511a22.28757,22.28757 0 0 0 -0.5677,-6.60637c-0.55088,-2.04373 -1.59798,-3.75104 -3.2296,-4.70142s-3.86038,-1.1312 -6.11016,-0.79058a29.04112,29.04112 0 0 0 -6.72832,2.03111l0.0799,-0.04626c-2.25399,1.21951 -4.50798,2.48527 -6.72832,3.78468q-1.68208,0.95879 -3.32211,1.97224c-1.09335,0.68545 -2.18671,1.3709 -3.2338,2.13203c0.91673,-0.92094 1.90075,-1.76619 2.89738,-2.59461s2.0185,-1.63582 3.04036,-2.43061c2.06475,-1.57695 4.15894,-3.09082 6.28677,-4.59208l0.0799,-0.04626a28.2127,28.2127 0 0 1 7.07315,-2.94364a16.10172,16.10172 0 0 1 4.02017,-0.52565a10.42049,10.42049 0 0 1 4.25146,0.89991a9.49114,9.49114 0 0 1 3.53237,2.77963a13.29684,13.29684 0 0 1 2.07316,3.78468a25.36157,25.36157 0 0 1 1.33305,7.9226c0.13036,5.22706 -0.68545,10.27331 -1.76619,15.20181c-0.55509,2.46425 -1.2111,4.89486 -1.92598,7.30023s-1.49284,4.78972 -2.3465,7.14884q-2.52312,7.06053 -5.66861,13.87716q-1.55172,3.3978 -3.22119,6.72832t-3.46929,6.61478q-3.5576,6.56012 -7.54413,12.87212c-2.64928,4.25146 -5.51302,8.35994 -8.52815,12.34647s-6.18165,7.85532 -9.50796,11.58533s-6.80402,7.32546 -10.44572,10.76111a131.68167,131.68167 0 0 1 -11.52225,9.69719q-3.03616,2.27081 -6.30781,4.28931a54.92413,54.92413 0 0 1 -6.83766,3.64591a27.43053,27.43053 0 0 1 -7.82168,2.27501a12.87212,12.87212 0 0 1 -4.55003,-0.25231l-0.58873,-0.16821l-0.58452,-0.21446a10.15135,10.15135 0 0 1 -1.08074,-0.50462a9.44909,9.44909 0 0 1 -1.95121,-1.40874a9.70981,9.70981 0 0 1 -2.54835,-3.97391a16.02602,16.02602 0 0 1 -0.81581,-4.15474a42.6113,42.6113 0 0 1 0.34483,-7.6787l0.22708,-1.84608c0.0799,-0.60975 0.14718,-1.22371 0.25231,-1.87552c0.20605,-1.26156 0.42052,-2.47266 0.70647,-3.69217s0.55088,-2.4264 0.84104,-3.6333s0.66022,-2.39276 1.02607,-3.57862c0.73171,-2.37173 1.5391,-4.71403 2.45584,-7.01007s1.98486,-4.53321 3.12867,-6.7115l0.00006,0.00001z" fill="#fff"/>
   <path stroke="null" id="svg_5" class="cls-1" d="m627.08255,33.95956a24.67191,24.67191 0 0 1 16.85024,-3.94448a22.93096,22.93096 0 0 1 8.4903,2.88897c0.63498,0.42052 1.29099,0.8116 1.91336,1.26156s1.20689,0.93356 1.7788,1.44238s1.09335,1.07232 1.62321,1.62741l1.46341,1.77039a23.75518,23.75518 0 0 1 4.23885,17.66184a24.15468,24.15468 0 0 1 -3.28006,8.78887a24.39017,24.39017 0 0 1 -6.44237,6.91755a25.13869,25.13869 0 0 1 -8.6543,3.99914a24.77705,24.77705 0 0 1 -9.6215,0.42052a23.66267,23.66267 0 0 1 -9.07903,-3.43986c-0.66442,-0.47519 -1.34146,-0.92935 -1.98486,-1.43397s-1.26156,-1.0513 -1.82926,-1.62321s-1.11017,-1.19848 -1.64423,-1.81244l-1.45079,-1.95962a22.32962,22.32962 0 0 1 -3.42304,-8.96549a22.8048,22.8048 0 0 1 0.60975,-9.3776a25.52136,25.52136 0 0 1 10.44152,-14.22199zm0.30277,0.42052a19.36916,19.36916 0 0 0 -5.61815,6.35406c-0.33642,0.62237 -0.60134,1.26156 -0.90412,1.90916s-0.46257,1.32464 -0.69386,1.97645s-0.31539,1.35828 -0.47098,2.02691l-0.26493,2.03111a21.6652,21.6652 0 0 0 0.90832,7.94783a22.92676,22.92676 0 0 0 3.46929,6.89653a21.21945,21.21945 0 0 0 12.56935,8.12445a19.71818,19.71818 0 0 0 7.69131,0.13877a19.46587,19.46587 0 0 0 7.22874,-2.89318a20.26486,20.26486 0 0 0 8.6543,-12.85109a20.65174,20.65174 0 0 0 -2.94364,-15.5256a22.07731,22.07731 0 0 0 -5.6644,-5.93775a21.60633,21.60633 0 0 0 -7.61142,-3.46509l-2.1026,-0.37006c-0.70647,-0.05046 -1.42136,-0.12616 -2.13203,-0.15559s-1.42977,0.02944 -2.14465,0.07569s-1.42556,0.164 -2.12783,0.30277s-1.39613,0.33221 -2.1026,0.53406s-1.36249,0.46678 -2.0185,0.74853s-1.2952,0.62657 -1.93018,0.9672l-1.79142,1.16484l-0.00002,0z" fill="#fff"/>
  </g>
  <g stroke="null" id="svg_6">
   <path stroke="#fff" id="svg_7" class="cls-1" d="m9.29738,40.00632a1.68359,1.68359 0 0 1 1.52633,0.79554l16.9793,23.87554l17.11343,-23.87554a1.68359,1.68359 0 0 1 1.52171,-0.79554l8.32545,0a0.70304,0.70304 0 0 1 0.70304,0.43015a0.8788,0.8788 0 0 1 -0.12951,0.89267l-22.82561,30.82267l0,12.69631q0,1.45695 -1.38758,1.45695l-6.88237,0q-1.46158,0 -1.46158,-1.45695l0,-12.69631l-22.55735,-30.82267a0.92505,0.92505 0 0 1 -0.17576,-0.89267a0.68454,0.68454 0 0 1 0.73079,-0.43015l8.51971,0z" fill="#fff" stroke-miterlimit="10"/>
   <path stroke="#fff" id="svg_8" class="cls-1" d="m97.3529,48.42427a1.05456,1.05456 0 0 1 1.19331,1.18869l0,5.14328a1.04993,1.04993 0 0 1 -1.19331,1.20719l-22.74236,0a13.51961,13.51961 0 0 0 -3.35331,0.35152a4.51887,4.51887 0 0 0 -2.11836,1.17481a4.62525,4.62525 0 0 0 -1.11469,2.271a16.9978,16.9978 0 0 0 -0.31452,3.54757l0,0.51803l29.39809,0c0.76317,0 1.14706,0.39777 1.14706,1.19331l0,4.27373c0,0.79554 -0.3839,1.19331 -1.14706,1.19331l-29.41659,0l0,0.92505a16.9793,16.9793 0 0 0 0.31452,3.54294a4.62525,4.62525 0 0 0 1.13319,2.28487a4.51887,4.51887 0 0 0 2.13687,1.19331a13.51961,13.51961 0 0 0 3.35331,0.35152l22.72386,0a1.05456,1.05456 0 0 1 1.19331,1.18869l0,5.1294a1.05456,1.05456 0 0 1 -1.19331,1.20257l-22.89499,0a25.54063,25.54063 0 0 1 -6.70661,-0.74004a9.44476,9.44476 0 0 1 -7.05813,-6.93788a23.67203,23.67203 0 0 1 -0.80479,-6.60948l0,-9.306a23.45465,23.45465 0 0 1 0.80479,-6.60486a10.06455,10.06455 0 0 1 2.54851,-4.40786a10.33281,10.33281 0 0 1 4.50962,-2.48838a24.86997,24.86997 0 0 1 6.71586,-0.78629l22.88574,0z" fill="#fff" stroke-miterlimit="10"/>
   <path stroke="#fff" id="svg_9" class="cls-1" d="m144.65072,48.42427a1.05456,1.05456 0 0 1 1.19794,1.18869l0,5.30516c0,0.83255 -0.4024,1.24419 -1.19794,1.24419l-16.34101,0l0,28.94019c0,0.79092 -0.37927,1.18869 -1.14244,1.18869l-5.67056,0c-0.76779,0 -1.14706,-0.39777 -1.14706,-1.18869l0,-28.94019l-16.33639,0c-0.80017,0 -1.19794,-0.41165 -1.19794,-1.24419l0,-5.30516a1.05456,1.05456 0 0 1 1.19794,-1.18869l40.63745,0z" fill="#fff" stroke-miterlimit="10"/>
   <path stroke="#fff" id="svg_10" class="cls-1" d="m201.93907,40.00632a7.58541,7.58541 0 0 1 4.07022,1.02681q1.65121,1.02681 3.23768,4.00084l21.04952,39.74941a1.43845,1.43845 0 0 1 0.16188,1.09156c-0.10638,0.28677 -0.41627,0.43015 -0.92505,0.43015l-8.07106,0a1.4477,1.4477 0 0 1 -1.46158,-0.8603l-4.51424,-8.53359l-29.893,0l-4.38936,8.53359a1.52171,1.52171 0 0 1 -1.46158,0.8603l-8.26532,0c-0.55503,0 -0.88342,-0.14338 -0.9898,-0.43015a1.41995,1.41995 0 0 1 0.16188,-1.09156l20.85988,-39.74941q1.59109,-2.97404 3.11742,-4.00084a6.22096,6.22096 0 0 1 3.55682,-1.02681l3.7557,0zm-12.34017,29.23621l21.87744,0l-10.1108,-19.3798a0.77242,0.77242 0 0 0 -0.69841,-0.46253l-0.3839,0a0.77242,0.77242 0 0 0 -0.69841,0.46253l-9.98592,19.3798z" fill="#fff" stroke-miterlimit="10"/>
   <path stroke="#fff" id="svg_11" class="cls-1" d="m244.8429,48.42427a17.19668,17.19668 0 0 1 2.08136,0.10638a3.99622,3.99622 0 0 1 1.45695,0.46253a4.98602,4.98602 0 0 1 1.19794,0.95743a16.98392,16.98392 0 0 1 1.2997,1.64659l19.35667,26.41018a0.71229,0.71229 0 0 0 0.67529,0.37927l0.46253,0q0.41627,0 0.41627,-0.54115l0,-28.23253c0,-0.79092 0.3839,-1.18869 1.14706,-1.18869l5.46242,0c0.76317,0 1.14706,0.39777 1.14706,1.18869l0,31.06318q0,3.30243 -1.14706,4.46337t-3.53832,1.16556l-4.47262,0a15.96637,15.96637 0 0 1 -2.00273,-0.10638a4.33849,4.33849 0 0 1 -1.43383,-0.43477a4.75013,4.75013 0 0 1 -1.22107,-0.94818a15.05057,15.05057 0 0 1 -1.38758,-1.70209l-19.42605,-26.41018a0.88805,0.88805 0 0 0 -0.67529,-0.37927l-0.46253,0q-0.41627,0 -0.41627,0.54115l0,28.23716c0,0.79092 -0.3839,1.18869 -1.14706,1.18869l-5.43929,0a1.05456,1.05456 0 0 1 -1.19794,-1.18869l0,-31.04931q0,-3.30243 1.14706,-4.46337t3.54757,-1.16556l4.56975,0z" fill="#fff" stroke-miterlimit="10"/>
   <path stroke="#fff" id="svg_12" class="cls-1" d="m317.22345,48.42427a25.11049,25.11049 0 0 1 6.73437,0.78629a10.30968,10.30968 0 0 1 4.52812,2.48838a9.89804,9.89804 0 0 1 2.52539,4.40786a24.22706,24.22706 0 0 1 0.78167,6.60486l0,9.306a24.45833,24.45833 0 0 1 -0.78167,6.60948a9.88879,9.88879 0 0 1 -2.52539,4.44024a10.0923,10.0923 0 0 1 -4.52812,2.49764a25.78577,25.78577 0 0 1 -6.73437,0.75854l-16.082,0a25.50363,25.50363 0 0 1 -6.71124,-0.75854a9.44476,9.44476 0 0 1 -7.04888,-6.93788a23.48702,23.48702 0 0 1 -0.80942,-6.62798l0,-9.2875a23.26964,23.26964 0 0 1 0.80942,-6.60486a10.06455,10.06455 0 0 1 2.54851,-4.40786a10.30968,10.30968 0 0 1 4.50037,-2.48838a24.83297,24.83297 0 0 1 6.71124,-0.78629l16.082,0zm-22.66373,23.00137a15.67035,15.67035 0 0 0 0.33764,3.54294a4.86114,4.86114 0 0 0 1.09618,2.271a4.30148,4.30148 0 0 0 2.09524,1.19331a13.53348,13.53348 0 0 0 3.35793,0.35152l15.45296,0a13.56124,13.56124 0 0 0 3.35793,-0.35152a4.30148,4.30148 0 0 0 2.11374,-1.19331a4.90277,4.90277 0 0 0 1.11931,-2.271a15.67035,15.67035 0 0 0 0.33764,-3.54294l0,-8.11732a15.68423,15.68423 0 0 0 -0.33764,-3.54757a4.92589,4.92589 0 0 0 -1.11931,-2.271a4.30148,4.30148 0 0 0 -2.08136,-1.19331a13.56124,13.56124 0 0 0 -3.35793,-0.35152l-15.47609,0a13.53348,13.53348 0 0 0 -3.35793,0.35152a4.30148,4.30148 0 0 0 -2.10449,1.19331a4.87964,4.87964 0 0 0 -1.11931,2.271a15.68423,15.68423 0 0 0 -0.33764,3.54757l0.02313,8.11732z" fill="#fff" stroke-miterlimit="10"/>
   <path stroke="#fff" id="svg_13" class="cls-1" d="m377.31933,48.42427a1.05456,1.05456 0 0 1 1.19794,1.18869l0,5.30516c0,0.83255 -0.39777,1.24419 -1.19794,1.24419l-16.32714,0l0,28.94019c0,0.79092 -0.3839,1.18869 -1.14706,1.18869l-5.67981,0c-0.76317,0 -1.14244,-0.39777 -1.14244,-1.18869l0,-28.94019l-16.34101,0c-0.80017,0 -1.19794,-0.41165 -1.19794,-1.24419l0,-5.30516a1.05456,1.05456 0 0 1 1.19794,-1.18869l40.63745,0z" fill="#fff" stroke-miterlimit="10"/>
   <path stroke="#fff" id="svg_14" class="cls-1" d="m390.4828,48.42427c0.76317,0 1.14706,0.39777 1.14706,1.18869l0,14.07001l24.35195,0l0,-14.07001c0,-0.79092 0.37927,-1.18869 1.14244,-1.18869l5.61968,0a1.05456,1.05456 0 0 1 1.19794,1.18869l0,35.48955a1.05456,1.05456 0 0 1 -1.19794,1.18869l-5.61968,0c-0.76317,0 -1.14244,-0.39777 -1.14244,-1.18869l0,-14.38453l-24.35195,0l0,14.38453c0,0.79092 -0.3839,1.18869 -1.14706,1.18869l-5.61968,0a1.05456,1.05456 0 0 1 -1.20719,-1.18869l0,-35.48955a1.05456,1.05456 0 0 1 1.19331,-1.18869l5.63356,0z" fill="#fff" stroke-miterlimit="10"/>
   <path stroke="#fff" id="svg_15" class="cls-1" d="m468.38127,48.42427a1.05456,1.05456 0 0 1 1.19331,1.18869l0,5.14328a1.04993,1.04993 0 0 1 -1.19331,1.18869l-22.74698,0a13.51961,13.51961 0 0 0 -3.35331,0.35152a4.49574,4.49574 0 0 0 -2.13687,1.19331a4.62525,4.62525 0 0 0 -1.11469,2.271a16.9978,16.9978 0 0 0 -0.31452,3.54757l0,0.51803l29.39809,0c0.76317,0 1.14706,0.39777 1.14706,1.19331l0,4.27373c0,0.79554 -0.3839,1.19331 -1.14706,1.19331l-29.39347,0l0,0.92505a16.9793,16.9793 0 0 0 0.31452,3.54294a4.62525,4.62525 0 0 0 1.11469,2.28487a4.49574,4.49574 0 0 0 2.13687,1.19331a13.51961,13.51961 0 0 0 3.35331,0.35152l22.74236,0a1.05456,1.05456 0 0 1 1.19331,1.18869l0,5.1294a1.05456,1.05456 0 0 1 -1.19331,1.18869l-22.89499,0a25.51751,25.51751 0 0 1 -6.71586,-0.72616a9.44476,9.44476 0 0 1 -7.04888,-6.93788a23.67203,23.67203 0 0 1 -0.80479,-6.62798l0,-9.2875a23.45465,23.45465 0 0 1 0.80479,-6.60486a10.06455,10.06455 0 0 1 2.54851,-4.40786a10.33281,10.33281 0 0 1 4.50037,-2.48838a24.84685,24.84685 0 0 1 6.71586,-0.78629l22.89499,0z" fill="#fff" stroke-miterlimit="10"/>
   <path stroke="#fff" id="svg_16" class="cls-1" d="m505.58216,48.42427q5.9897,0 8.58447,2.81215t2.60402,8.32545l0,3.08504q0,4.653 -1.82235,7.35877t-5.94807,3.47356l8.89436,11.47525a0.86492,0.86492 0 0 1 0.15726,0.80942q-0.10176,0.54115 -0.83255,0.54115l-6.69274,0a1.94261,1.94261 0 0 1 -0.92505,-0.16188a1.8501,1.8501 0 0 1 -0.51803,-0.54115l-8.21907,-11.25786l-16.84054,0l0,10.75833c0,0.79092 -0.3839,1.18869 -1.14706,1.18869l-5.61968,0a1.05456,1.05456 0 0 1 -1.19794,-1.18869l0,-35.05478q0,-1.62346 1.56333,-1.62346l27.95964,0zm-21.55829,19.31967l19.93021,0q2.65027,0 3.74183,-1.18869t1.09618,-3.6262l0,-2.27562q0,-2.43288 -1.09618,-3.6262t-3.74183,-1.18869l-19.23642,0c-0.46253,0 -0.67529,0.21739 -0.67529,0.64754l-0.0185,11.25786z" fill="#fff" stroke-miterlimit="10"/>
   <path stroke="#fff" id="svg_17" class="cls-1" d="m349.66958,115.67542a17.08105,17.08105 0 0 1 3.2978,0.27289a5.98507,5.98507 0 0 1 2.42826,1.03606a7.49291,7.49291 0 0 1 1.8501,2.07211a22.00232,22.00232 0 0 1 1.69284,3.47356l18.03848,43.29235a1.22569,1.22569 0 0 0 1.21182,0.81404l1.04068,0a1.23032,1.23032 0 0 0 1.21644,-0.81404l18.03848,-43.29235a22.03469,22.03469 0 0 1 1.68822,-3.47356a7.49291,7.49291 0 0 1 1.8501,-2.07211a5.9712,5.9712 0 0 1 2.38663,-1.03606a16.38264,16.38264 0 0 1 3.23768,-0.27289l9.31063,0q4.50962,0 6.07295,2.11836t1.55871,7.26164l0,51.77043c0,1.32282 -0.66141,1.98423 -1.99348,1.98423l-8.83423,0q-1.9056,0 -1.91023,-1.98423l0,-47.08043q0,-0.92505 -0.69379,-0.92505l-0.78167,0a1.06843,1.06843 0 0 0 -1.12394,0.72154l-17.52045,40.40619a27.2011,27.2011 0 0 1 -2.12299,4.1026a12.8582,12.8582 0 0 1 -2.34038,2.75202a7.45128,7.45128 0 0 1 -2.86303,1.53558a14.05151,14.05151 0 0 1 -3.7742,0.46253l-4.16273,0a14.01451,14.01451 0 0 1 -3.76958,-0.46253a7.4004,7.4004 0 0 1 -2.86303,-1.53558a12.59918,12.59918 0 0 1 -2.34038,-2.75202a26.76633,26.76633 0 0 1 -2.12762,-4.1026l-17.51582,-40.40619a1.07768,1.07768 0 0 0 -1.12856,-0.72154l-0.78167,0q-0.69379,0 -0.69379,0.92505l0,47.08043q0,1.98423 -1.9056,1.98423l-8.8481,0q-1.99348,0 -1.99348,-1.98423l0,-51.77043q0,-5.14328 1.55871,-7.26164t6.16083,-2.11836l9.44939,0z" fill="#fff" stroke-miterlimit="10"/>
   <path stroke="#fff" id="svg_18" class="cls-1" d="m480.67056,132.51133c0.9713,0 1.46158,0.48565 1.46158,1.45695l0,6.28109c0,0.9713 -0.49028,1.45695 -1.46158,1.45695l-27.79313,0a16.34564,16.34564 0 0 0 -4.1026,0.43015a5.49017,5.49017 0 0 0 -2.60864,1.45233a5.64281,5.64281 0 0 0 -1.36445,2.77515a20.78125,20.78125 0 0 0 -0.3839,4.33386l0,0.65679l35.93357,0c0.92505,0 1.38758,0.49028 1.38758,1.45695l0,5.22653c0,0.9713 -0.46253,1.45233 -1.38758,1.45233l-35.93357,0l0,1.12856a20.735,20.735 0 0 0 0.3839,4.32923a5.64281,5.64281 0 0 0 1.36445,2.77515a5.45317,5.45317 0 0 0 2.60864,1.45233a16.13287,16.13287 0 0 0 4.1026,0.43015l27.79313,0c0.9713,0 1.46158,0.46253 1.46158,1.45695l0,6.28109c0,0.9713 -0.49028,1.45695 -1.46158,1.45695l-27.98277,0a31.45171,31.45171 0 0 1 -8.20519,-0.92505a12.41417,12.41417 0 0 1 -5.49942,-3.01104a12.21991,12.21991 0 0 1 -3.11742,-5.42079a28.96795,28.96795 0 0 1 -0.98518,-8.10344l0,-11.37812a28.5563,28.5563 0 0 1 0.98518,-8.06644a12.24766,12.24766 0 0 1 3.11742,-5.39304a12.68706,12.68706 0 0 1 5.49942,-3.04342a30.3879,30.3879 0 0 1 8.20519,-0.95743l27.98277,0.00925z" fill="#fff" stroke-miterlimit="10"/>
   <path stroke="#fff" id="svg_19" class="cls-1" d="m535.36415,132.51133c0.9713,0 1.46158,0.48565 1.46158,1.45695l0,6.28109c0,0.9713 -0.49028,1.45695 -1.46158,1.45695l-27.79313,0a16.34564,16.34564 0 0 0 -4.1026,0.43015a5.49017,5.49017 0 0 0 -2.60864,1.45233a5.64281,5.64281 0 0 0 -1.38758,2.77515a20.78125,20.78125 0 0 0 -0.3839,4.33386l0,0.65679l35.93357,0c0.92505,0 1.38758,0.49028 1.38758,1.45695l0,5.22653c0,0.9713 -0.46253,1.45233 -1.38758,1.45233l-35.93357,0l0,1.12856a20.735,20.735 0 0 0 0.3839,4.32923a5.64281,5.64281 0 0 0 1.38758,2.77515a5.45317,5.45317 0 0 0 2.60864,1.45233a16.13287,16.13287 0 0 0 4.1026,0.43015l27.79313,0c0.9713,0 1.46158,0.46253 1.46158,1.45695l0,6.28109c0,0.9713 -0.49028,1.45695 -1.46158,1.45695l-27.98277,0a31.45171,31.45171 0 0 1 -8.20519,-0.92505a12.43267,12.43267 0 0 1 -5.50405,-3.01104a12.25691,12.25691 0 0 1 -3.11279,-5.42079a28.79681,28.79681 0 0 1 -0.98518,-8.10344l0,-11.37812a28.38979,28.38979 0 0 1 0.98518,-8.06644a12.28467,12.28467 0 0 1 3.11279,-5.39304a12.70556,12.70556 0 0 1 5.50405,-3.04342a30.3879,30.3879 0 0 1 8.20519,-0.95743l27.98277,0.00925z" fill="#fff" stroke-miterlimit="10"/>
   <path stroke="#fff" id="svg_20" class="cls-1" d="m593.17979,132.51133q1.46158,0 1.46158,1.45695l0,6.47535q0,1.51708 -1.46158,1.52171l-19.96721,0l0,35.38317q0,1.45695 -1.38758,1.45695l-6.93788,0q-1.38758,0 -1.38758,-1.45695l0,-35.35542l-19.97183,0q-1.46158,0 -1.46158,-1.52171l0,-6.47535q0,-1.45695 1.46158,-1.45695l49.65207,-0.02775z" fill="#fff" stroke-miterlimit="10"/>
  </g>
 </g>

</svg>